# Blender v2.82 (sub 7) OBJ File: ''
# www.blender.org
mtllib Circle.mtl
o Plane
v -0.092642 -1.000000 0.000000
v -0.290849 -0.960574 0.000000
v -0.457863 -0.891395 0.000000
v -0.625895 -0.779119 0.000000
v -0.779119 -0.625895 0.000000
v -0.891395 -0.457863 0.000000
v -0.960574 -0.290849 0.000000
v -1.000000 -0.092642 0.000000
v 1.000000 -0.092642 0.000000
v 0.960574 -0.290849 0.000000
v 0.891395 -0.457863 0.000000
v 0.779119 -0.625895 0.000000
v 0.625895 -0.779119 0.000000
v 0.457863 -0.891395 0.000000
v 0.290849 -0.960574 0.000000
v 0.092642 -1.000000 0.000000
v -0.625895 0.779119 -0.000000
v -0.457863 0.891395 -0.000000
v -0.290849 0.960574 -0.000000
v -0.092642 1.000000 -0.000000
v -0.891395 0.457863 -0.000000
v -0.779119 0.625895 -0.000000
v -0.960574 0.290849 -0.000000
v -1.000000 0.092642 -0.000000
v 0.092642 1.000000 -0.000000
v 0.290849 0.960574 -0.000000
v 0.457863 0.891395 -0.000000
v 0.625895 0.779119 -0.000000
v 0.779119 0.625895 -0.000000
v 0.891395 0.457863 -0.000000
v 0.960574 0.290849 -0.000000
v 1.000000 0.092642 -0.000000
v 0.000000 -0.000000 0.000000
vt 0.889560 0.187053
vt 0.945697 0.271069
vt 0.889560 0.187053
vt 0.000000 0.546321
vt 0.000000 0.453679
vt 0.000000 0.546321
vt 0.271069 0.945697
vt 0.187053 0.889560
vt 0.271069 0.945697
vt 0.980287 0.354575
vt 0.945697 0.271069
vt 0.019713 0.354575
vt 0.000000 0.453679
vt 0.110440 0.812947
vt 0.187053 0.889560
vt 1.000000 0.453679
vt 0.980287 0.354575
vt 0.054303 0.271069
vt 0.019713 0.354575
vt 0.054303 0.728931
vt 0.110440 0.812947
vt 1.000000 0.546321
vt 1.000000 0.453679
vt 0.110440 0.187053
vt 0.054303 0.271069
vt 0.019713 0.645425
vt 0.054303 0.728931
vt 0.980287 0.645425
vt 1.000000 0.546321
vt 0.187053 0.110440
vt 0.110440 0.187053
vt 0.019713 0.645425
vt 0.945697 0.728931
vt 0.980287 0.645425
vt 0.271069 0.054303
vt 0.187053 0.110440
vt 0.889560 0.812948
vt 0.945697 0.728931
vt 0.354575 0.019713
vt 0.271069 0.054303
vt 0.812947 0.889560
vt 0.889560 0.812948
vt 0.453679 0.000000
vt 0.354575 0.019713
vt 0.728931 0.945697
vt 0.812947 0.889560
vt 0.546321 0.000000
vt 0.453679 0.000000
vt 0.645425 0.980287
vt 0.728931 0.945697
vt 0.645425 0.019713
vt 0.546321 0.000000
vt 0.546321 1.000000
vt 0.645425 0.980287
vt 0.728931 0.054303
vt 0.645425 0.019713
vt 0.453679 1.000000
vt 0.546321 1.000000
vt 0.812948 0.110440
vt 0.728931 0.054303
vt 0.354575 0.980287
vt 0.453679 1.000000
vt 0.812948 0.110440
vt 0.354575 0.980287
vn 0.0000 0.0000 1.0000
usemtl Material.001
s off
f 12/1/1 11/2/1 33/3/1
f 24/4/1 8/5/1 33/6/1
f 18/7/1 17/8/1 33/9/1
f 11/2/1 10/10/1 33/11/1
f 8/5/1 7/12/1 33/13/1
f 17/8/1 22/14/1 33/15/1
f 10/10/1 9/16/1 33/17/1
f 7/12/1 6/18/1 33/19/1
f 22/14/1 21/20/1 33/21/1
f 9/16/1 32/22/1 33/23/1
f 6/18/1 5/24/1 33/25/1
f 21/20/1 23/26/1 33/27/1
f 32/22/1 31/28/1 33/29/1
f 5/24/1 4/30/1 33/31/1
f 23/26/1 24/4/1 33/32/1
f 31/28/1 30/33/1 33/34/1
f 4/30/1 3/35/1 33/36/1
f 30/33/1 29/37/1 33/38/1
f 3/35/1 2/39/1 33/40/1
f 29/37/1 28/41/1 33/42/1
f 2/39/1 1/43/1 33/44/1
f 28/41/1 27/45/1 33/46/1
f 1/43/1 16/47/1 33/48/1
f 27/45/1 26/49/1 33/50/1
f 16/47/1 15/51/1 33/52/1
f 26/49/1 25/53/1 33/54/1
f 15/51/1 14/55/1 33/56/1
f 25/53/1 20/57/1 33/58/1
f 14/55/1 13/59/1 33/60/1
f 20/57/1 19/61/1 33/62/1
f 13/59/1 12/1/1 33/63/1
f 19/61/1 18/7/1 33/64/1
