# Blender v2.82 (sub 7) OBJ File: ''
# www.blender.org
mtllib Cube.mtl
o Cube_Cube.001
v -1.000000 -1.000000 1.000000
v -1.000000 1.000000 1.000000
v -1.000000 -1.000000 -1.000000
v -1.000000 1.000000 -1.000000
v 1.000000 -1.000000 1.000000
v 1.000000 1.000000 1.000000
v 1.000000 -1.000000 -1.000000
v 1.000000 1.000000 -1.000000
vt 0.000069 -0.000079
vt 1.000069 -0.000079
vt 1.000069 0.999921
vt 0.000069 0.999921
vt -0.000023 0.000031
vt 0.999977 0.000031
vt 0.999977 1.000031
vt -0.000023 1.000031
vt -0.000023 0.000088
vt 0.999977 0.000088
vt 0.999977 1.000088
vt -0.000023 1.000088
vt 0.000138 0.000092
vt 1.000138 0.000092
vt 1.000138 1.000092
vt 0.000138 1.000092
vt -0.000008 -0.003953
vt 0.999992 -0.003953
vt 0.999992 1.000016
vt -0.000008 1.000016
vt 0.000126 0.000268
vt 1.000127 0.000268
vt 1.000127 1.000268
vt 0.000126 1.000268
vn -1.0000 0.0000 0.0000
vn 0.0000 0.0000 -1.0000
vn 1.0000 0.0000 0.0000
vn 0.0000 0.0000 1.0000
vn 0.0000 -1.0000 0.0000
vn 0.0000 1.0000 0.0000
usemtl Material.001
s off
f 1/1/1 2/2/1 4/3/1 3/4/1
f 3/5/2 4/6/2 8/7/2 7/8/2
f 7/9/3 8/10/3 6/11/3 5/12/3
f 5/13/4 6/14/4 2/15/4 1/16/4
f 3/17/5 7/18/5 5/19/5 1/20/5
f 8/21/6 4/22/6 2/23/6 6/24/6
