# Blender v2.82 (sub 7) OBJ File: ''
# www.blender.org
mtllib Cube.mtl
o Cube_Cube.001
v -1.000000 -1.000000 1.000000
v -1.000000 1.000000 1.000000
v -1.000000 1.000000 -1.000000
v -1.000000 -1.000000 -1.000000
v 1.000000 1.000000 -1.000000
v 1.000000 -1.000000 -1.000000
v 1.000000 1.000000 1.000000
v 1.000000 -1.000000 1.000000
vt 0.988938 0.009983
vt 0.007534 0.991387
vt 0.007534 0.009983
vt 0.992224 0.011532
vt 0.007776 0.995980
vt 0.007776 0.011532
vt 0.990775 0.016052
vt 0.009225 0.997602
vt 0.009225 0.016052
vt 0.991134 0.013472
vt 0.008866 0.995741
vt 0.008866 0.013472
vt 0.993668 0.004796
vt 0.003717 0.994747
vt 0.003717 0.004796
vt 0.985320 0.013995
vt 0.010240 0.989076
vt 0.010240 0.013995
vt 0.988938 0.991387
vt 0.992224 0.995980
vt 0.990775 0.997602
vt 0.991134 0.995741
vt 0.993668 0.994747
vt 0.985320 0.989076
vn -1.0000 -0.0000 0.0000
vn 0.0000 0.0000 -1.0000
vn 1.0000 -0.0000 0.0000
vn 0.0000 -0.0000 1.0000
vn 0.0000 -1.0000 -0.0000
vn 0.0000 1.0000 0.0000
usemtl Material.002
s 1
f 2/1/1 4/2/1 1/3/1
f 3/4/2 6/5/2 4/6/2
f 5/7/3 8/8/3 6/9/3
f 7/10/4 1/11/4 8/12/4
f 6/13/5 1/14/5 4/15/5
f 3/16/6 7/17/6 5/18/6
f 2/1/1 3/19/1 4/2/1
f 3/4/2 5/20/2 6/5/2
f 5/7/3 7/21/3 8/8/3
f 7/10/4 2/22/4 1/11/4
f 6/13/5 8/23/5 1/14/5
f 3/16/6 2/24/6 7/17/6
